<?xml version="1.0" encoding="utf-8" standalone="no"?>
<!DOCTYPE svg PUBLIC "-//W3C//DTD SVG 1.1//EN"
  "http://www.w3.org/Graphics/SVG/1.1/DTD/svg11.dtd">
<svg xmlns:xlink="http://www.w3.org/1999/xlink" width="864pt" height="432pt" viewBox="0 0 864 432" xmlns="http://www.w3.org/2000/svg" version="1.1">
 <metadata>
  <rdf:RDF xmlns:dc="http://purl.org/dc/elements/1.1/" xmlns:cc="http://creativecommons.org/ns#" xmlns:rdf="http://www.w3.org/1999/02/22-rdf-syntax-ns#">
   <cc:Work>
    <dc:type rdf:resource="http://purl.org/dc/dcmitype/StillImage"/>
    <dc:date>2024-11-04T17:59:57.766729</dc:date>
    <dc:format>image/svg+xml</dc:format>
    <dc:creator>
     <cc:Agent>
      <dc:title>Matplotlib v3.9.2, https://matplotlib.org/</dc:title>
     </cc:Agent>
    </dc:creator>
   </cc:Work>
  </rdf:RDF>
 </metadata>
 <defs>
  <style type="text/css">*{stroke-linejoin: round; stroke-linecap: butt}</style>
 </defs>
 <g id="figure_1">
  <g id="patch_1">
   <path d="M 0 432 
L 864 432 
L 864 0 
L 0 0 
z
" style="fill: #ffffff"/>
  </g>
  <g id="axes_1">
   <g id="patch_2">
    <path d="M 60.05 387.16 
L 853.2 387.16 
L 853.2 41.6 
L 60.05 41.6 
z
" style="fill: #ffffff"/>
   </g>
   <g id="matplotlib.axis_1">
    <g id="xtick_1">
     <g id="line2d_1">
      <path d="M 74.516653 387.16 
L 74.516653 41.6 
" clip-path="url(#p4998aaabe1)" style="fill: none; stroke-dasharray: 2.96,1.28; stroke-dashoffset: 0; stroke: #b0b0b0; stroke-opacity: 0.7; stroke-width: 0.8"/>
     </g>
     <g id="line2d_2">
      <defs>
       <path id="m370b894c27" d="M 0 0 
L 0 3.5 
" style="stroke: #000000; stroke-width: 0.8"/>
      </defs>
      <g>
       <use xlink:href="#m370b894c27" x="74.516653" y="387.16" style="stroke: #000000; stroke-width: 0.8"/>
      </g>
     </g>
     <g id="text_1">
      <!-- 0 -->
      <g transform="translate(71.335403 401.758438) scale(0.1 -0.1)">
       <defs>
        <path id="DejaVuSans-30" d="M 2034 4250 
Q 1547 4250 1301 3770 
Q 1056 3291 1056 2328 
Q 1056 1369 1301 889 
Q 1547 409 2034 409 
Q 2525 409 2770 889 
Q 3016 1369 3016 2328 
Q 3016 3291 2770 3770 
Q 2525 4250 2034 4250 
z
M 2034 4750 
Q 2819 4750 3233 4129 
Q 3647 3509 3647 2328 
Q 3647 1150 3233 529 
Q 2819 -91 2034 -91 
Q 1250 -91 836 529 
Q 422 1150 422 2328 
Q 422 3509 836 4129 
Q 1250 4750 2034 4750 
z
" transform="scale(0.015625)"/>
       </defs>
       <use xlink:href="#DejaVuSans-30"/>
      </g>
     </g>
    </g>
    <g id="xtick_2">
     <g id="line2d_3">
      <path d="M 231.762887 387.16 
L 231.762887 41.6 
" clip-path="url(#p4998aaabe1)" style="fill: none; stroke-dasharray: 2.96,1.28; stroke-dashoffset: 0; stroke: #b0b0b0; stroke-opacity: 0.7; stroke-width: 0.8"/>
     </g>
     <g id="line2d_4">
      <g>
       <use xlink:href="#m370b894c27" x="231.762887" y="387.16" style="stroke: #000000; stroke-width: 0.8"/>
      </g>
     </g>
     <g id="text_2">
      <!-- 200 -->
      <g transform="translate(222.219137 401.758438) scale(0.1 -0.1)">
       <defs>
        <path id="DejaVuSans-32" d="M 1228 531 
L 3431 531 
L 3431 0 
L 469 0 
L 469 531 
Q 828 903 1448 1529 
Q 2069 2156 2228 2338 
Q 2531 2678 2651 2914 
Q 2772 3150 2772 3378 
Q 2772 3750 2511 3984 
Q 2250 4219 1831 4219 
Q 1534 4219 1204 4116 
Q 875 4013 500 3803 
L 500 4441 
Q 881 4594 1212 4672 
Q 1544 4750 1819 4750 
Q 2544 4750 2975 4387 
Q 3406 4025 3406 3419 
Q 3406 3131 3298 2873 
Q 3191 2616 2906 2266 
Q 2828 2175 2409 1742 
Q 1991 1309 1228 531 
z
" transform="scale(0.015625)"/>
       </defs>
       <use xlink:href="#DejaVuSans-32"/>
       <use xlink:href="#DejaVuSans-30" x="63.623047"/>
       <use xlink:href="#DejaVuSans-30" x="127.246094"/>
      </g>
     </g>
    </g>
    <g id="xtick_3">
     <g id="line2d_5">
      <path d="M 389.00912 387.16 
L 389.00912 41.6 
" clip-path="url(#p4998aaabe1)" style="fill: none; stroke-dasharray: 2.96,1.28; stroke-dashoffset: 0; stroke: #b0b0b0; stroke-opacity: 0.7; stroke-width: 0.8"/>
     </g>
     <g id="line2d_6">
      <g>
       <use xlink:href="#m370b894c27" x="389.00912" y="387.16" style="stroke: #000000; stroke-width: 0.8"/>
      </g>
     </g>
     <g id="text_3">
      <!-- 400 -->
      <g transform="translate(379.46537 401.758438) scale(0.1 -0.1)">
       <defs>
        <path id="DejaVuSans-34" d="M 2419 4116 
L 825 1625 
L 2419 1625 
L 2419 4116 
z
M 2253 4666 
L 3047 4666 
L 3047 1625 
L 3713 1625 
L 3713 1100 
L 3047 1100 
L 3047 0 
L 2419 0 
L 2419 1100 
L 313 1100 
L 313 1709 
L 2253 4666 
z
" transform="scale(0.015625)"/>
       </defs>
       <use xlink:href="#DejaVuSans-34"/>
       <use xlink:href="#DejaVuSans-30" x="63.623047"/>
       <use xlink:href="#DejaVuSans-30" x="127.246094"/>
      </g>
     </g>
    </g>
    <g id="xtick_4">
     <g id="line2d_7">
      <path d="M 546.255353 387.16 
L 546.255353 41.6 
" clip-path="url(#p4998aaabe1)" style="fill: none; stroke-dasharray: 2.96,1.28; stroke-dashoffset: 0; stroke: #b0b0b0; stroke-opacity: 0.7; stroke-width: 0.8"/>
     </g>
     <g id="line2d_8">
      <g>
       <use xlink:href="#m370b894c27" x="546.255353" y="387.16" style="stroke: #000000; stroke-width: 0.8"/>
      </g>
     </g>
     <g id="text_4">
      <!-- 600 -->
      <g transform="translate(536.711603 401.758438) scale(0.1 -0.1)">
       <defs>
        <path id="DejaVuSans-36" d="M 2113 2584 
Q 1688 2584 1439 2293 
Q 1191 2003 1191 1497 
Q 1191 994 1439 701 
Q 1688 409 2113 409 
Q 2538 409 2786 701 
Q 3034 994 3034 1497 
Q 3034 2003 2786 2293 
Q 2538 2584 2113 2584 
z
M 3366 4563 
L 3366 3988 
Q 3128 4100 2886 4159 
Q 2644 4219 2406 4219 
Q 1781 4219 1451 3797 
Q 1122 3375 1075 2522 
Q 1259 2794 1537 2939 
Q 1816 3084 2150 3084 
Q 2853 3084 3261 2657 
Q 3669 2231 3669 1497 
Q 3669 778 3244 343 
Q 2819 -91 2113 -91 
Q 1303 -91 875 529 
Q 447 1150 447 2328 
Q 447 3434 972 4092 
Q 1497 4750 2381 4750 
Q 2619 4750 2861 4703 
Q 3103 4656 3366 4563 
z
" transform="scale(0.015625)"/>
       </defs>
       <use xlink:href="#DejaVuSans-36"/>
       <use xlink:href="#DejaVuSans-30" x="63.623047"/>
       <use xlink:href="#DejaVuSans-30" x="127.246094"/>
      </g>
     </g>
    </g>
    <g id="xtick_5">
     <g id="line2d_9">
      <path d="M 703.501586 387.16 
L 703.501586 41.6 
" clip-path="url(#p4998aaabe1)" style="fill: none; stroke-dasharray: 2.96,1.28; stroke-dashoffset: 0; stroke: #b0b0b0; stroke-opacity: 0.7; stroke-width: 0.8"/>
     </g>
     <g id="line2d_10">
      <g>
       <use xlink:href="#m370b894c27" x="703.501586" y="387.16" style="stroke: #000000; stroke-width: 0.8"/>
      </g>
     </g>
     <g id="text_5">
      <!-- 800 -->
      <g transform="translate(693.957836 401.758438) scale(0.1 -0.1)">
       <defs>
        <path id="DejaVuSans-38" d="M 2034 2216 
Q 1584 2216 1326 1975 
Q 1069 1734 1069 1313 
Q 1069 891 1326 650 
Q 1584 409 2034 409 
Q 2484 409 2743 651 
Q 3003 894 3003 1313 
Q 3003 1734 2745 1975 
Q 2488 2216 2034 2216 
z
M 1403 2484 
Q 997 2584 770 2862 
Q 544 3141 544 3541 
Q 544 4100 942 4425 
Q 1341 4750 2034 4750 
Q 2731 4750 3128 4425 
Q 3525 4100 3525 3541 
Q 3525 3141 3298 2862 
Q 3072 2584 2669 2484 
Q 3125 2378 3379 2068 
Q 3634 1759 3634 1313 
Q 3634 634 3220 271 
Q 2806 -91 2034 -91 
Q 1263 -91 848 271 
Q 434 634 434 1313 
Q 434 1759 690 2068 
Q 947 2378 1403 2484 
z
M 1172 3481 
Q 1172 3119 1398 2916 
Q 1625 2713 2034 2713 
Q 2441 2713 2670 2916 
Q 2900 3119 2900 3481 
Q 2900 3844 2670 4047 
Q 2441 4250 2034 4250 
Q 1625 4250 1398 4047 
Q 1172 3844 1172 3481 
z
" transform="scale(0.015625)"/>
       </defs>
       <use xlink:href="#DejaVuSans-38"/>
       <use xlink:href="#DejaVuSans-30" x="63.623047"/>
       <use xlink:href="#DejaVuSans-30" x="127.246094"/>
      </g>
     </g>
    </g>
    <g id="text_6">
     <!-- Time -->
     <g transform="translate(441.944688 416.95625) scale(0.12 -0.12)">
      <defs>
       <path id="DejaVuSans-54" d="M -19 4666 
L 3928 4666 
L 3928 4134 
L 2272 4134 
L 2272 0 
L 1638 0 
L 1638 4134 
L -19 4134 
L -19 4666 
z
" transform="scale(0.015625)"/>
       <path id="DejaVuSans-69" d="M 603 3500 
L 1178 3500 
L 1178 0 
L 603 0 
L 603 3500 
z
M 603 4863 
L 1178 4863 
L 1178 4134 
L 603 4134 
L 603 4863 
z
" transform="scale(0.015625)"/>
       <path id="DejaVuSans-6d" d="M 3328 2828 
Q 3544 3216 3844 3400 
Q 4144 3584 4550 3584 
Q 5097 3584 5394 3201 
Q 5691 2819 5691 2113 
L 5691 0 
L 5113 0 
L 5113 2094 
Q 5113 2597 4934 2840 
Q 4756 3084 4391 3084 
Q 3944 3084 3684 2787 
Q 3425 2491 3425 1978 
L 3425 0 
L 2847 0 
L 2847 2094 
Q 2847 2600 2669 2842 
Q 2491 3084 2119 3084 
Q 1678 3084 1418 2786 
Q 1159 2488 1159 1978 
L 1159 0 
L 581 0 
L 581 3500 
L 1159 3500 
L 1159 2956 
Q 1356 3278 1631 3431 
Q 1906 3584 2284 3584 
Q 2666 3584 2933 3390 
Q 3200 3197 3328 2828 
z
" transform="scale(0.015625)"/>
       <path id="DejaVuSans-65" d="M 3597 1894 
L 3597 1613 
L 953 1613 
Q 991 1019 1311 708 
Q 1631 397 2203 397 
Q 2534 397 2845 478 
Q 3156 559 3463 722 
L 3463 178 
Q 3153 47 2828 -22 
Q 2503 -91 2169 -91 
Q 1331 -91 842 396 
Q 353 884 353 1716 
Q 353 2575 817 3079 
Q 1281 3584 2069 3584 
Q 2775 3584 3186 3129 
Q 3597 2675 3597 1894 
z
M 3022 2063 
Q 3016 2534 2758 2815 
Q 2500 3097 2075 3097 
Q 1594 3097 1305 2825 
Q 1016 2553 972 2059 
L 3022 2063 
z
" transform="scale(0.015625)"/>
      </defs>
      <use xlink:href="#DejaVuSans-54"/>
      <use xlink:href="#DejaVuSans-69" x="57.958984"/>
      <use xlink:href="#DejaVuSans-6d" x="85.742188"/>
      <use xlink:href="#DejaVuSans-65" x="183.154297"/>
     </g>
    </g>
   </g>
   <g id="matplotlib.axis_2">
    <g id="ytick_1">
     <g id="line2d_11">
      <path d="M 60.05 379.604908 
L 853.2 379.604908 
" clip-path="url(#p4998aaabe1)" style="fill: none; stroke-dasharray: 2.96,1.28; stroke-dashoffset: 0; stroke: #b0b0b0; stroke-opacity: 0.7; stroke-width: 0.8"/>
     </g>
     <g id="line2d_12">
      <defs>
       <path id="mbb72dc5bea" d="M 0 0 
L -3.5 0 
" style="stroke: #000000; stroke-width: 0.8"/>
      </defs>
      <g>
       <use xlink:href="#mbb72dc5bea" x="60.05" y="379.604908" style="stroke: #000000; stroke-width: 0.8"/>
      </g>
     </g>
     <g id="text_7">
      <!-- 1000 -->
      <g transform="translate(27.6 383.404127) scale(0.1 -0.1)">
       <defs>
        <path id="DejaVuSans-31" d="M 794 531 
L 1825 531 
L 1825 4091 
L 703 3866 
L 703 4441 
L 1819 4666 
L 2450 4666 
L 2450 531 
L 3481 531 
L 3481 0 
L 794 0 
L 794 531 
z
" transform="scale(0.015625)"/>
       </defs>
       <use xlink:href="#DejaVuSans-31"/>
       <use xlink:href="#DejaVuSans-30" x="63.623047"/>
       <use xlink:href="#DejaVuSans-30" x="127.246094"/>
       <use xlink:href="#DejaVuSans-30" x="190.869141"/>
      </g>
     </g>
    </g>
    <g id="ytick_2">
     <g id="line2d_13">
      <path d="M 60.05 337.912735 
L 853.2 337.912735 
" clip-path="url(#p4998aaabe1)" style="fill: none; stroke-dasharray: 2.96,1.28; stroke-dashoffset: 0; stroke: #b0b0b0; stroke-opacity: 0.7; stroke-width: 0.8"/>
     </g>
     <g id="line2d_14">
      <g>
       <use xlink:href="#mbb72dc5bea" x="60.05" y="337.912735" style="stroke: #000000; stroke-width: 0.8"/>
      </g>
     </g>
     <g id="text_8">
      <!-- 2000 -->
      <g transform="translate(27.6 341.711954) scale(0.1 -0.1)">
       <use xlink:href="#DejaVuSans-32"/>
       <use xlink:href="#DejaVuSans-30" x="63.623047"/>
       <use xlink:href="#DejaVuSans-30" x="127.246094"/>
       <use xlink:href="#DejaVuSans-30" x="190.869141"/>
      </g>
     </g>
    </g>
    <g id="ytick_3">
     <g id="line2d_15">
      <path d="M 60.05 296.220562 
L 853.2 296.220562 
" clip-path="url(#p4998aaabe1)" style="fill: none; stroke-dasharray: 2.96,1.28; stroke-dashoffset: 0; stroke: #b0b0b0; stroke-opacity: 0.7; stroke-width: 0.8"/>
     </g>
     <g id="line2d_16">
      <g>
       <use xlink:href="#mbb72dc5bea" x="60.05" y="296.220562" style="stroke: #000000; stroke-width: 0.8"/>
      </g>
     </g>
     <g id="text_9">
      <!-- 3000 -->
      <g transform="translate(27.6 300.01978) scale(0.1 -0.1)">
       <defs>
        <path id="DejaVuSans-33" d="M 2597 2516 
Q 3050 2419 3304 2112 
Q 3559 1806 3559 1356 
Q 3559 666 3084 287 
Q 2609 -91 1734 -91 
Q 1441 -91 1130 -33 
Q 819 25 488 141 
L 488 750 
Q 750 597 1062 519 
Q 1375 441 1716 441 
Q 2309 441 2620 675 
Q 2931 909 2931 1356 
Q 2931 1769 2642 2001 
Q 2353 2234 1838 2234 
L 1294 2234 
L 1294 2753 
L 1863 2753 
Q 2328 2753 2575 2939 
Q 2822 3125 2822 3475 
Q 2822 3834 2567 4026 
Q 2313 4219 1838 4219 
Q 1578 4219 1281 4162 
Q 984 4106 628 3988 
L 628 4550 
Q 988 4650 1302 4700 
Q 1616 4750 1894 4750 
Q 2613 4750 3031 4423 
Q 3450 4097 3450 3541 
Q 3450 3153 3228 2886 
Q 3006 2619 2597 2516 
z
" transform="scale(0.015625)"/>
       </defs>
       <use xlink:href="#DejaVuSans-33"/>
       <use xlink:href="#DejaVuSans-30" x="63.623047"/>
       <use xlink:href="#DejaVuSans-30" x="127.246094"/>
       <use xlink:href="#DejaVuSans-30" x="190.869141"/>
      </g>
     </g>
    </g>
    <g id="ytick_4">
     <g id="line2d_17">
      <path d="M 60.05 254.528388 
L 853.2 254.528388 
" clip-path="url(#p4998aaabe1)" style="fill: none; stroke-dasharray: 2.96,1.28; stroke-dashoffset: 0; stroke: #b0b0b0; stroke-opacity: 0.7; stroke-width: 0.8"/>
     </g>
     <g id="line2d_18">
      <g>
       <use xlink:href="#mbb72dc5bea" x="60.05" y="254.528388" style="stroke: #000000; stroke-width: 0.8"/>
      </g>
     </g>
     <g id="text_10">
      <!-- 4000 -->
      <g transform="translate(27.6 258.327607) scale(0.1 -0.1)">
       <use xlink:href="#DejaVuSans-34"/>
       <use xlink:href="#DejaVuSans-30" x="63.623047"/>
       <use xlink:href="#DejaVuSans-30" x="127.246094"/>
       <use xlink:href="#DejaVuSans-30" x="190.869141"/>
      </g>
     </g>
    </g>
    <g id="ytick_5">
     <g id="line2d_19">
      <path d="M 60.05 212.836215 
L 853.2 212.836215 
" clip-path="url(#p4998aaabe1)" style="fill: none; stroke-dasharray: 2.96,1.28; stroke-dashoffset: 0; stroke: #b0b0b0; stroke-opacity: 0.7; stroke-width: 0.8"/>
     </g>
     <g id="line2d_20">
      <g>
       <use xlink:href="#mbb72dc5bea" x="60.05" y="212.836215" style="stroke: #000000; stroke-width: 0.8"/>
      </g>
     </g>
     <g id="text_11">
      <!-- 5000 -->
      <g transform="translate(27.6 216.635434) scale(0.1 -0.1)">
       <defs>
        <path id="DejaVuSans-35" d="M 691 4666 
L 3169 4666 
L 3169 4134 
L 1269 4134 
L 1269 2991 
Q 1406 3038 1543 3061 
Q 1681 3084 1819 3084 
Q 2600 3084 3056 2656 
Q 3513 2228 3513 1497 
Q 3513 744 3044 326 
Q 2575 -91 1722 -91 
Q 1428 -91 1123 -41 
Q 819 9 494 109 
L 494 744 
Q 775 591 1075 516 
Q 1375 441 1709 441 
Q 2250 441 2565 725 
Q 2881 1009 2881 1497 
Q 2881 1984 2565 2268 
Q 2250 2553 1709 2553 
Q 1456 2553 1204 2497 
Q 953 2441 691 2322 
L 691 4666 
z
" transform="scale(0.015625)"/>
       </defs>
       <use xlink:href="#DejaVuSans-35"/>
       <use xlink:href="#DejaVuSans-30" x="63.623047"/>
       <use xlink:href="#DejaVuSans-30" x="127.246094"/>
       <use xlink:href="#DejaVuSans-30" x="190.869141"/>
      </g>
     </g>
    </g>
    <g id="ytick_6">
     <g id="line2d_21">
      <path d="M 60.05 171.144042 
L 853.2 171.144042 
" clip-path="url(#p4998aaabe1)" style="fill: none; stroke-dasharray: 2.96,1.28; stroke-dashoffset: 0; stroke: #b0b0b0; stroke-opacity: 0.7; stroke-width: 0.8"/>
     </g>
     <g id="line2d_22">
      <g>
       <use xlink:href="#mbb72dc5bea" x="60.05" y="171.144042" style="stroke: #000000; stroke-width: 0.8"/>
      </g>
     </g>
     <g id="text_12">
      <!-- 6000 -->
      <g transform="translate(27.6 174.94326) scale(0.1 -0.1)">
       <use xlink:href="#DejaVuSans-36"/>
       <use xlink:href="#DejaVuSans-30" x="63.623047"/>
       <use xlink:href="#DejaVuSans-30" x="127.246094"/>
       <use xlink:href="#DejaVuSans-30" x="190.869141"/>
      </g>
     </g>
    </g>
    <g id="ytick_7">
     <g id="line2d_23">
      <path d="M 60.05 129.451868 
L 853.2 129.451868 
" clip-path="url(#p4998aaabe1)" style="fill: none; stroke-dasharray: 2.96,1.28; stroke-dashoffset: 0; stroke: #b0b0b0; stroke-opacity: 0.7; stroke-width: 0.8"/>
     </g>
     <g id="line2d_24">
      <g>
       <use xlink:href="#mbb72dc5bea" x="60.05" y="129.451868" style="stroke: #000000; stroke-width: 0.8"/>
      </g>
     </g>
     <g id="text_13">
      <!-- 7000 -->
      <g transform="translate(27.6 133.251087) scale(0.1 -0.1)">
       <defs>
        <path id="DejaVuSans-37" d="M 525 4666 
L 3525 4666 
L 3525 4397 
L 1831 0 
L 1172 0 
L 2766 4134 
L 525 4134 
L 525 4666 
z
" transform="scale(0.015625)"/>
       </defs>
       <use xlink:href="#DejaVuSans-37"/>
       <use xlink:href="#DejaVuSans-30" x="63.623047"/>
       <use xlink:href="#DejaVuSans-30" x="127.246094"/>
       <use xlink:href="#DejaVuSans-30" x="190.869141"/>
      </g>
     </g>
    </g>
    <g id="ytick_8">
     <g id="line2d_25">
      <path d="M 60.05 87.759695 
L 853.2 87.759695 
" clip-path="url(#p4998aaabe1)" style="fill: none; stroke-dasharray: 2.96,1.28; stroke-dashoffset: 0; stroke: #b0b0b0; stroke-opacity: 0.7; stroke-width: 0.8"/>
     </g>
     <g id="line2d_26">
      <g>
       <use xlink:href="#mbb72dc5bea" x="60.05" y="87.759695" style="stroke: #000000; stroke-width: 0.8"/>
      </g>
     </g>
     <g id="text_14">
      <!-- 8000 -->
      <g transform="translate(27.6 91.558914) scale(0.1 -0.1)">
       <use xlink:href="#DejaVuSans-38"/>
       <use xlink:href="#DejaVuSans-30" x="63.623047"/>
       <use xlink:href="#DejaVuSans-30" x="127.246094"/>
       <use xlink:href="#DejaVuSans-30" x="190.869141"/>
      </g>
     </g>
    </g>
    <g id="ytick_9">
     <g id="line2d_27">
      <path d="M 60.05 46.067522 
L 853.2 46.067522 
" clip-path="url(#p4998aaabe1)" style="fill: none; stroke-dasharray: 2.96,1.28; stroke-dashoffset: 0; stroke: #b0b0b0; stroke-opacity: 0.7; stroke-width: 0.8"/>
     </g>
     <g id="line2d_28">
      <g>
       <use xlink:href="#mbb72dc5bea" x="60.05" y="46.067522" style="stroke: #000000; stroke-width: 0.8"/>
      </g>
     </g>
     <g id="text_15">
      <!-- 9000 -->
      <g transform="translate(27.6 49.86674) scale(0.1 -0.1)">
       <defs>
        <path id="DejaVuSans-39" d="M 703 97 
L 703 672 
Q 941 559 1184 500 
Q 1428 441 1663 441 
Q 2288 441 2617 861 
Q 2947 1281 2994 2138 
Q 2813 1869 2534 1725 
Q 2256 1581 1919 1581 
Q 1219 1581 811 2004 
Q 403 2428 403 3163 
Q 403 3881 828 4315 
Q 1253 4750 1959 4750 
Q 2769 4750 3195 4129 
Q 3622 3509 3622 2328 
Q 3622 1225 3098 567 
Q 2575 -91 1691 -91 
Q 1453 -91 1209 -44 
Q 966 3 703 97 
z
M 1959 2075 
Q 2384 2075 2632 2365 
Q 2881 2656 2881 3163 
Q 2881 3666 2632 3958 
Q 2384 4250 1959 4250 
Q 1534 4250 1286 3958 
Q 1038 3666 1038 3163 
Q 1038 2656 1286 2365 
Q 1534 2075 1959 2075 
z
" transform="scale(0.015625)"/>
       </defs>
       <use xlink:href="#DejaVuSans-39"/>
       <use xlink:href="#DejaVuSans-30" x="63.623047"/>
       <use xlink:href="#DejaVuSans-30" x="127.246094"/>
       <use xlink:href="#DejaVuSans-30" x="190.869141"/>
      </g>
     </g>
    </g>
    <g id="text_16">
     <!-- Mean Squared Error -->
     <g transform="translate(21.104375 274.094063) rotate(-90) scale(0.12 -0.12)">
      <defs>
       <path id="DejaVuSans-4d" d="M 628 4666 
L 1569 4666 
L 2759 1491 
L 3956 4666 
L 4897 4666 
L 4897 0 
L 4281 0 
L 4281 4097 
L 3078 897 
L 2444 897 
L 1241 4097 
L 1241 0 
L 628 0 
L 628 4666 
z
" transform="scale(0.015625)"/>
       <path id="DejaVuSans-61" d="M 2194 1759 
Q 1497 1759 1228 1600 
Q 959 1441 959 1056 
Q 959 750 1161 570 
Q 1363 391 1709 391 
Q 2188 391 2477 730 
Q 2766 1069 2766 1631 
L 2766 1759 
L 2194 1759 
z
M 3341 1997 
L 3341 0 
L 2766 0 
L 2766 531 
Q 2569 213 2275 61 
Q 1981 -91 1556 -91 
Q 1019 -91 701 211 
Q 384 513 384 1019 
Q 384 1609 779 1909 
Q 1175 2209 1959 2209 
L 2766 2209 
L 2766 2266 
Q 2766 2663 2505 2880 
Q 2244 3097 1772 3097 
Q 1472 3097 1187 3025 
Q 903 2953 641 2809 
L 641 3341 
Q 956 3463 1253 3523 
Q 1550 3584 1831 3584 
Q 2591 3584 2966 3190 
Q 3341 2797 3341 1997 
z
" transform="scale(0.015625)"/>
       <path id="DejaVuSans-6e" d="M 3513 2113 
L 3513 0 
L 2938 0 
L 2938 2094 
Q 2938 2591 2744 2837 
Q 2550 3084 2163 3084 
Q 1697 3084 1428 2787 
Q 1159 2491 1159 1978 
L 1159 0 
L 581 0 
L 581 3500 
L 1159 3500 
L 1159 2956 
Q 1366 3272 1645 3428 
Q 1925 3584 2291 3584 
Q 2894 3584 3203 3211 
Q 3513 2838 3513 2113 
z
" transform="scale(0.015625)"/>
       <path id="DejaVuSans-20" transform="scale(0.015625)"/>
       <path id="DejaVuSans-53" d="M 3425 4513 
L 3425 3897 
Q 3066 4069 2747 4153 
Q 2428 4238 2131 4238 
Q 1616 4238 1336 4038 
Q 1056 3838 1056 3469 
Q 1056 3159 1242 3001 
Q 1428 2844 1947 2747 
L 2328 2669 
Q 3034 2534 3370 2195 
Q 3706 1856 3706 1288 
Q 3706 609 3251 259 
Q 2797 -91 1919 -91 
Q 1588 -91 1214 -16 
Q 841 59 441 206 
L 441 856 
Q 825 641 1194 531 
Q 1563 422 1919 422 
Q 2459 422 2753 634 
Q 3047 847 3047 1241 
Q 3047 1584 2836 1778 
Q 2625 1972 2144 2069 
L 1759 2144 
Q 1053 2284 737 2584 
Q 422 2884 422 3419 
Q 422 4038 858 4394 
Q 1294 4750 2059 4750 
Q 2388 4750 2728 4690 
Q 3069 4631 3425 4513 
z
" transform="scale(0.015625)"/>
       <path id="DejaVuSans-71" d="M 947 1747 
Q 947 1113 1208 752 
Q 1469 391 1925 391 
Q 2381 391 2643 752 
Q 2906 1113 2906 1747 
Q 2906 2381 2643 2742 
Q 2381 3103 1925 3103 
Q 1469 3103 1208 2742 
Q 947 2381 947 1747 
z
M 2906 525 
Q 2725 213 2448 61 
Q 2172 -91 1784 -91 
Q 1150 -91 751 415 
Q 353 922 353 1747 
Q 353 2572 751 3078 
Q 1150 3584 1784 3584 
Q 2172 3584 2448 3432 
Q 2725 3281 2906 2969 
L 2906 3500 
L 3481 3500 
L 3481 -1331 
L 2906 -1331 
L 2906 525 
z
" transform="scale(0.015625)"/>
       <path id="DejaVuSans-75" d="M 544 1381 
L 544 3500 
L 1119 3500 
L 1119 1403 
Q 1119 906 1312 657 
Q 1506 409 1894 409 
Q 2359 409 2629 706 
Q 2900 1003 2900 1516 
L 2900 3500 
L 3475 3500 
L 3475 0 
L 2900 0 
L 2900 538 
Q 2691 219 2414 64 
Q 2138 -91 1772 -91 
Q 1169 -91 856 284 
Q 544 659 544 1381 
z
M 1991 3584 
L 1991 3584 
z
" transform="scale(0.015625)"/>
       <path id="DejaVuSans-72" d="M 2631 2963 
Q 2534 3019 2420 3045 
Q 2306 3072 2169 3072 
Q 1681 3072 1420 2755 
Q 1159 2438 1159 1844 
L 1159 0 
L 581 0 
L 581 3500 
L 1159 3500 
L 1159 2956 
Q 1341 3275 1631 3429 
Q 1922 3584 2338 3584 
Q 2397 3584 2469 3576 
Q 2541 3569 2628 3553 
L 2631 2963 
z
" transform="scale(0.015625)"/>
       <path id="DejaVuSans-64" d="M 2906 2969 
L 2906 4863 
L 3481 4863 
L 3481 0 
L 2906 0 
L 2906 525 
Q 2725 213 2448 61 
Q 2172 -91 1784 -91 
Q 1150 -91 751 415 
Q 353 922 353 1747 
Q 353 2572 751 3078 
Q 1150 3584 1784 3584 
Q 2172 3584 2448 3432 
Q 2725 3281 2906 2969 
z
M 947 1747 
Q 947 1113 1208 752 
Q 1469 391 1925 391 
Q 2381 391 2643 752 
Q 2906 1113 2906 1747 
Q 2906 2381 2643 2742 
Q 2381 3103 1925 3103 
Q 1469 3103 1208 2742 
Q 947 2381 947 1747 
z
" transform="scale(0.015625)"/>
       <path id="DejaVuSans-45" d="M 628 4666 
L 3578 4666 
L 3578 4134 
L 1259 4134 
L 1259 2753 
L 3481 2753 
L 3481 2222 
L 1259 2222 
L 1259 531 
L 3634 531 
L 3634 0 
L 628 0 
L 628 4666 
z
" transform="scale(0.015625)"/>
       <path id="DejaVuSans-6f" d="M 1959 3097 
Q 1497 3097 1228 2736 
Q 959 2375 959 1747 
Q 959 1119 1226 758 
Q 1494 397 1959 397 
Q 2419 397 2687 759 
Q 2956 1122 2956 1747 
Q 2956 2369 2687 2733 
Q 2419 3097 1959 3097 
z
M 1959 3584 
Q 2709 3584 3137 3096 
Q 3566 2609 3566 1747 
Q 3566 888 3137 398 
Q 2709 -91 1959 -91 
Q 1206 -91 779 398 
Q 353 888 353 1747 
Q 353 2609 779 3096 
Q 1206 3584 1959 3584 
z
" transform="scale(0.015625)"/>
      </defs>
      <use xlink:href="#DejaVuSans-4d"/>
      <use xlink:href="#DejaVuSans-65" x="86.279297"/>
      <use xlink:href="#DejaVuSans-61" x="147.802734"/>
      <use xlink:href="#DejaVuSans-6e" x="209.082031"/>
      <use xlink:href="#DejaVuSans-20" x="272.460938"/>
      <use xlink:href="#DejaVuSans-53" x="304.248047"/>
      <use xlink:href="#DejaVuSans-71" x="367.724609"/>
      <use xlink:href="#DejaVuSans-75" x="431.201172"/>
      <use xlink:href="#DejaVuSans-61" x="494.580078"/>
      <use xlink:href="#DejaVuSans-72" x="555.859375"/>
      <use xlink:href="#DejaVuSans-65" x="594.722656"/>
      <use xlink:href="#DejaVuSans-64" x="656.246094"/>
      <use xlink:href="#DejaVuSans-20" x="719.722656"/>
      <use xlink:href="#DejaVuSans-45" x="751.509766"/>
      <use xlink:href="#DejaVuSans-72" x="814.693359"/>
      <use xlink:href="#DejaVuSans-72" x="854.056641"/>
      <use xlink:href="#DejaVuSans-6f" x="892.919922"/>
      <use xlink:href="#DejaVuSans-72" x="954.101562"/>
     </g>
    </g>
   </g>
   <g id="line2d_29">
    <path d="M 75.302885 62.076814 
L 76.089116 177.39572 
L 76.875347 57.307273 
L 77.661578 266.18296 
L 78.447809 251.010253 
L 79.23404 66.04446 
L 80.020272 207.82023 
L 80.806503 312.290123 
L 81.592734 278.357324 
L 82.378965 299.011236 
L 83.165196 293.964868 
L 83.951427 305.433631 
L 85.52389 222.467685 
L 86.310121 355.268857 
L 87.096352 326.393506 
L 87.882583 354.486565 
L 88.668814 276.435275 
L 89.455046 268.273658 
L 90.241277 249.389585 
L 91.027508 217.240908 
L 91.813739 193.174407 
L 92.59997 174.715068 
L 93.386201 193.184452 
L 94.172433 121.295144 
L 94.958664 238.412234 
L 95.744895 198.78301 
L 96.531126 317.367788 
L 97.317357 257.20574 
L 98.103588 294.347394 
L 98.88982 316.298303 
L 99.676051 320.645254 
L 100.462282 303.761138 
L 101.248513 319.798411 
L 102.034744 304.861969 
L 102.820975 312.3814 
L 104.393438 337.344648 
L 105.179669 325.40229 
L 105.9659 277.467069 
L 106.752131 324.440103 
L 107.538362 305.337832 
L 108.324594 305.168968 
L 109.110825 316.964318 
L 109.897056 304.309522 
L 110.683287 308.502633 
L 111.469518 279.141626 
L 112.255749 331.480032 
L 113.041981 310.857238 
L 113.828212 314.874391 
L 114.614443 352.464581 
L 115.400674 353.176778 
L 116.186905 317.8627 
L 116.973136 267.312988 
L 117.759368 326.313139 
L 118.545599 322.832509 
L 119.33183 337.381068 
L 120.118061 321.396696 
L 120.904292 308.756708 
L 121.690523 312.975774 
L 122.476755 321.612072 
L 123.262986 301.670198 
L 124.049217 339.614145 
L 124.835448 348.38241 
L 125.621679 290.045829 
L 126.40791 313.100897 
L 127.194142 312.30505 
L 127.980373 336.820418 
L 128.766604 303.151214 
L 129.552835 319.454167 
L 130.339066 312.139813 
L 131.125297 323.722063 
L 131.911529 305.243398 
L 132.69776 283.541785 
L 133.483991 338.130378 
L 134.270222 296.005331 
L 135.056453 301.123785 
L 135.842684 308.500117 
L 136.628916 314.141338 
L 137.415147 297.923805 
L 138.201378 299.447224 
L 138.987609 326.514288 
L 139.77384 322.713931 
L 140.560071 302.822284 
L 141.346303 293.237426 
L 142.132534 318.2895 
L 142.918765 334.52812 
L 143.704996 294.163476 
L 144.491227 276.638913 
L 145.277458 316.116764 
L 146.06369 287.08757 
L 146.849921 309.366922 
L 147.636152 303.047849 
L 148.422383 338.212903 
L 149.208614 349.785573 
L 149.994845 304.897127 
L 150.781077 300.203472 
L 151.567308 300.871763 
L 152.353539 312.96004 
L 153.13977 284.255498 
L 153.926001 299.236415 
L 154.712232 302.154274 
L 155.498464 336.058173 
L 156.284695 262.09046 
L 157.857157 309.380122 
L 158.643388 329.868507 
L 159.429619 328.399821 
L 160.215851 278.393043 
L 161.002082 305.207907 
L 161.788313 316.028875 
L 162.574544 332.139058 
L 163.360775 329.119257 
L 164.147006 324.311784 
L 164.933238 297.611722 
L 165.719469 324.041541 
L 166.5057 331.205657 
L 167.291931 300.413359 
L 168.078162 341.816833 
L 168.864393 311.385246 
L 169.650625 350.874156 
L 170.436856 315.733247 
L 171.223087 338.619295 
L 172.009318 318.109145 
L 172.795549 316.501825 
L 173.58178 322.4413 
L 174.368011 299.139887 
L 175.154243 304.382883 
L 175.940474 316.141571 
L 176.726705 319.784147 
L 177.512936 304.074948 
L 178.299167 336.816622 
L 179.085398 327.496399 
L 179.87163 300.914774 
L 180.657861 323.933664 
L 181.444092 290.116547 
L 182.230323 317.775194 
L 183.016554 328.167141 
L 183.802785 326.210434 
L 184.589017 290.244401 
L 185.375248 305.666743 
L 186.161479 299.871584 
L 186.94771 303.509881 
L 187.733941 305.238827 
L 188.520172 299.447003 
L 189.306404 295.224944 
L 190.092635 336.210082 
L 190.878866 311.872961 
L 191.665097 298.513786 
L 192.451328 303.050161 
L 193.237559 323.674458 
L 194.023791 302.313197 
L 194.810022 313.84817 
L 195.596253 320.56953 
L 196.382484 334.829871 
L 197.168715 298.057959 
L 197.954946 301.592762 
L 198.741178 294.862439 
L 199.527409 307.70406 
L 200.31364 291.497549 
L 201.099871 323.049656 
L 201.886102 291.25157 
L 202.672333 299.435515 
L 203.458565 283.531196 
L 204.244796 301.007493 
L 205.031027 330.80355 
L 205.817258 299.529989 
L 206.603489 295.85687 
L 207.38972 289.678151 
L 208.175952 326.057163 
L 208.962183 283.896399 
L 209.748414 259.78215 
L 210.534645 305.971067 
L 211.320876 301.933258 
L 212.107107 336.609395 
L 212.893339 264.610699 
L 213.67957 301.39801 
L 214.465801 312.928293 
L 215.252032 282.90968 
L 216.038263 240.970511 
L 216.824494 284.064088 
L 217.610726 309.802042 
L 218.396957 293.226474 
L 219.183188 292.345863 
L 219.969419 322.298114 
L 220.75565 312.510097 
L 221.541881 314.175077 
L 222.328113 282.336427 
L 223.114344 302.492749 
L 223.900575 330.363815 
L 224.686806 266.898792 
L 225.473037 259.759544 
L 226.259268 300.362504 
L 227.0455 281.987492 
L 227.831731 278.496297 
L 228.617962 277.872433 
L 229.404193 305.795162 
L 230.190424 305.554406 
L 230.976655 336.553398 
L 231.762887 304.651057 
L 232.549118 283.121182 
L 233.335349 316.031668 
L 234.12158 280.633955 
L 234.907811 321.835811 
L 235.694042 331.12126 
L 237.266505 295.688821 
L 238.052736 247.489635 
L 238.838967 303.4999 
L 239.625198 305.073668 
L 240.411429 304.832798 
L 241.197661 325.309995 
L 241.983892 298.555822 
L 242.770123 296.034356 
L 243.556354 335.245666 
L 244.342585 341.378606 
L 245.128816 297.837684 
L 245.915048 324.364387 
L 247.48751 280.584331 
L 248.273741 315.627013 
L 249.059972 289.862674 
L 249.846203 331.561735 
L 250.632435 309.63096 
L 251.418666 300.908142 
L 252.204897 298.110255 
L 252.991128 300.828326 
L 253.777359 294.355499 
L 254.56359 298.480572 
L 255.349822 284.912231 
L 256.136053 284.194958 
L 256.922284 312.499002 
L 257.708515 268.113278 
L 258.494746 302.786366 
L 259.280977 306.320042 
L 260.067209 281.039783 
L 260.85344 318.276656 
L 261.639671 296.174746 
L 262.425902 302.46923 
L 263.212133 294.920795 
L 263.998364 315.587695 
L 264.784596 324.702477 
L 265.570827 324.300234 
L 266.357058 295.008584 
L 267.143289 290.545411 
L 268.715751 331.623961 
L 269.501983 282.086698 
L 270.288214 291.974376 
L 271.074445 294.310763 
L 271.860676 300.1322 
L 272.646907 292.720255 
L 273.433138 298.701508 
L 274.21937 307.834844 
L 275.005601 264.702796 
L 275.791832 326.431179 
L 276.578063 307.359309 
L 277.364294 338.416016 
L 278.150525 266.540972 
L 278.936757 267.96698 
L 279.722988 340.443042 
L 280.509219 308.099474 
L 281.29545 304.546637 
L 282.081681 315.871678 
L 282.867912 312.482825 
L 283.654144 324.094715 
L 284.440375 324.330353 
L 285.226606 290.21909 
L 286.012837 312.807341 
L 286.799068 301.608309 
L 287.585299 294.293274 
L 288.371531 357.942358 
L 289.157762 314.658804 
L 289.943993 325.139729 
L 290.730224 286.4173 
L 291.516455 322.721118 
L 292.302686 310.493576 
L 293.088918 315.411837 
L 293.875149 301.385356 
L 294.66138 323.87011 
L 295.447611 301.731737 
L 296.233842 334.684331 
L 297.020073 309.319549 
L 297.806305 301.521694 
L 299.378767 331.135492 
L 300.164998 320.32756 
L 300.951229 325.07095 
L 301.73746 305.195383 
L 302.523692 337.087913 
L 303.309923 305.876645 
L 304.096154 338.187999 
L 304.882385 297.388416 
L 305.668616 324.857037 
L 306.454847 329.571272 
L 308.02731 298.816161 
L 308.813541 299.404435 
L 309.599772 300.96557 
L 310.386003 279.946411 
L 311.172234 286.727172 
L 311.958466 298.105918 
L 312.744697 296.871727 
L 313.530928 286.03305 
L 314.317159 294.897725 
L 315.10339 285.633848 
L 315.889621 321.304013 
L 316.675852 298.938402 
L 317.462084 291.799038 
L 318.248315 345.421201 
L 319.034546 303.736609 
L 319.820777 290.38887 
L 320.607008 311.139103 
L 321.393239 300.919862 
L 322.179471 333.991736 
L 322.965702 301.72166 
L 323.751933 292.012561 
L 324.538164 298.529701 
L 325.324395 282.628437 
L 326.110626 297.445025 
L 326.896858 332.40749 
L 327.683089 327.45052 
L 328.46932 299.649954 
L 329.255551 304.283748 
L 330.041782 294.174406 
L 330.828013 302.385382 
L 331.614245 286.084247 
L 332.400476 346.804899 
L 333.972938 303.010075 
L 334.759169 293.823103 
L 335.5454 286.563333 
L 336.331632 298.050279 
L 337.117863 326.627305 
L 337.904094 274.096421 
L 338.690325 299.719268 
L 339.476556 293.499344 
L 340.262787 296.846388 
L 341.049019 293.387872 
L 341.83525 301.669352 
L 342.621481 303.479909 
L 343.407712 300.148342 
L 344.193943 295.229377 
L 344.980174 301.755715 
L 345.766406 300.614662 
L 346.552637 298.774325 
L 347.338868 337.403782 
L 348.125099 300.660973 
L 348.91133 301.949646 
L 349.697561 333.190639 
L 350.483793 289.714709 
L 351.270024 297.196637 
L 352.056255 290.806032 
L 352.842486 271.85496 
L 353.628717 293.198859 
L 354.414948 284.730833 
L 355.20118 328.272941 
L 355.987411 293.489716 
L 356.773642 279.347531 
L 357.559873 322.190479 
L 358.346104 289.744579 
L 359.132335 294.340522 
L 359.918567 292.71702 
L 360.704798 287.577152 
L 361.491029 322.283689 
L 362.27726 290.661185 
L 363.063491 290.898466 
L 363.849722 294.02134 
L 364.635954 296.218438 
L 365.422185 298.780124 
L 366.208416 273.176848 
L 366.994647 285.877743 
L 367.780878 281.084862 
L 368.567109 298.750264 
L 369.353341 296.971948 
L 370.139572 319.360893 
L 370.925803 307.434412 
L 371.712034 324.209635 
L 372.498265 306.220628 
L 373.284496 301.796662 
L 374.070728 310.646019 
L 374.856959 292.888678 
L 375.64319 313.907148 
L 376.429421 304.955197 
L 377.215652 327.495893 
L 378.001883 252.388174 
L 378.788115 283.368316 
L 379.574346 289.723222 
L 380.360577 316.529397 
L 381.146808 301.551863 
L 381.933039 324.511324 
L 382.71927 314.234938 
L 383.505502 316.52129 
L 384.291733 311.580022 
L 385.077964 289.115159 
L 385.864195 302.536503 
L 386.650426 308.245084 
L 387.436657 301.507641 
L 388.222889 279.385404 
L 389.00912 334.899822 
L 389.795351 304.793854 
L 390.581582 295.071794 
L 391.367813 280.880364 
L 392.154044 302.337727 
L 392.940276 299.546347 
L 393.726507 297.640573 
L 394.512738 294.208158 
L 395.298969 297.356031 
L 396.0852 302.157378 
L 396.871431 288.001256 
L 398.443894 312.019463 
L 399.230125 296.17254 
L 400.016356 302.295129 
L 400.802587 323.413929 
L 401.588818 319.664002 
L 402.37505 313.904208 
L 403.161281 315.353493 
L 403.947512 320.826045 
L 404.733743 309.136902 
L 405.519974 289.821666 
L 406.306205 290.063089 
L 407.092437 302.667806 
L 408.664899 295.854819 
L 409.45113 308.512867 
L 410.237361 300.67371 
L 411.023592 297.487718 
L 411.809824 301.359285 
L 412.596055 297.360842 
L 413.382286 298.624653 
L 414.168517 326.748414 
L 414.954748 311.446881 
L 415.740979 318.12053 
L 416.527211 300.166538 
L 417.313442 291.604372 
L 418.099673 311.671714 
L 418.885904 324.682904 
L 419.672135 313.026316 
L 420.458366 315.945289 
L 421.244598 296.884623 
L 422.030829 296.147769 
L 422.81706 303.977844 
L 423.603291 307.869639 
L 424.389522 304.954959 
L 425.175753 309.520119 
L 426.748216 293.336068 
L 427.534447 303.130905 
L 428.320678 308.531985 
L 429.106909 321.866759 
L 429.89314 310.179262 
L 430.679372 321.922255 
L 431.465603 320.168942 
L 432.251834 306.699231 
L 433.038065 301.712913 
L 433.824296 294.622925 
L 434.610527 326.758734 
L 435.396759 330.765034 
L 436.18299 305.310714 
L 436.969221 297.105435 
L 437.755452 326.468762 
L 438.541683 300.693696 
L 439.327914 297.705707 
L 440.114146 329.731269 
L 440.900377 338.979746 
L 441.686608 322.809908 
L 442.472839 317.110771 
L 443.25907 304.041346 
L 444.045301 309.428915 
L 444.831533 304.844795 
L 445.617764 330.334987 
L 446.403995 300.95145 
L 447.190226 326.830908 
L 447.976457 309.468453 
L 448.762688 315.839661 
L 449.54892 292.404702 
L 450.335151 300.565306 
L 451.121382 301.623471 
L 451.907613 326.961305 
L 452.693844 267.313885 
L 453.480075 328.278169 
L 454.266307 293.721034 
L 455.052538 303.256869 
L 455.838769 330.917626 
L 456.625 300.494995 
L 457.411231 310.000724 
L 458.197462 329.211226 
L 458.983693 313.05722 
L 459.769925 302.825802 
L 460.556156 289.112398 
L 461.342387 302.586819 
L 462.128618 309.260489 
L 462.914849 323.619856 
L 463.70108 300.948293 
L 465.273543 280.936675 
L 466.059774 308.539024 
L 466.846005 320.540369 
L 467.632236 326.428554 
L 468.418467 318.317907 
L 469.204699 283.69689 
L 469.99093 291.891105 
L 470.777161 296.109727 
L 471.563392 298.317943 
L 472.349623 289.688329 
L 473.135854 321.060922 
L 473.922086 327.35453 
L 474.708317 322.202089 
L 475.494548 338.737761 
L 476.280779 315.525861 
L 477.06701 338.698555 
L 477.853241 329.871984 
L 478.639473 328.22297 
L 479.425704 338.083974 
L 480.211935 318.377484 
L 480.998166 322.879607 
L 481.784397 323.733942 
L 482.570628 314.087477 
L 483.35686 311.582118 
L 484.143091 325.684756 
L 484.929322 317.547398 
L 485.715553 337.103894 
L 486.501784 299.197457 
L 487.288015 331.930212 
L 488.074247 324.068762 
L 488.860478 341.070796 
L 489.646709 335.937049 
L 490.43294 334.44666 
L 491.219171 334.594565 
L 492.005402 329.59491 
L 492.791634 318.002338 
L 493.577865 251.354635 
L 494.364096 335.416543 
L 495.150327 333.834636 
L 495.936558 304.2772 
L 496.722789 340.15226 
L 497.509021 326.047232 
L 498.295252 305.034572 
L 499.081483 325.634845 
L 499.867714 310.265916 
L 500.653945 319.069635 
L 501.440176 302.253442 
L 502.226408 200.989613 
L 503.012639 270.836284 
L 503.79887 296.106429 
L 504.585101 296.559092 
L 505.371332 336.962446 
L 506.157563 288.09317 
L 506.943795 263.31337 
L 507.730026 234.008416 
L 508.516257 284.485333 
L 509.302488 300.124991 
L 510.088719 280.558439 
L 510.87495 294.850909 
L 511.661182 305.049653 
L 512.447413 292.889353 
L 513.233644 305.413014 
L 514.019875 295.660289 
L 514.806106 294.298179 
L 515.592337 310.26965 
L 516.378569 283.725779 
L 517.1648 289.943631 
L 517.951031 295.119593 
L 518.737262 302.798564 
L 519.523493 307.542506 
L 520.309724 315.742124 
L 521.095956 286.511973 
L 521.882187 305.947846 
L 522.668418 306.573722 
L 523.454649 291.636177 
L 524.24088 311.542047 
L 525.027111 283.953789 
L 525.813343 275.381766 
L 526.599574 272.890707 
L 527.385805 285.863339 
L 528.172036 324.959789 
L 528.958267 300.227425 
L 529.744498 321.725501 
L 530.53073 306.327967 
L 531.316961 313.93811 
L 532.103192 328.715678 
L 532.889423 308.052025 
L 533.675654 323.5168 
L 534.461885 331.565057 
L 535.248117 345.018769 
L 536.034348 343.188971 
L 536.820579 327.961672 
L 537.60681 322.866888 
L 538.393041 344.09418 
L 539.179272 343.893728 
L 539.965504 338.080649 
L 540.751735 294.364 
L 541.537966 311.195682 
L 542.324197 312.534517 
L 543.110428 289.011711 
L 543.896659 308.455794 
L 544.682891 324.636664 
L 545.469122 328.738178 
L 546.255353 319.767967 
L 547.041584 334.116594 
L 547.827815 337.648961 
L 548.614046 322.795449 
L 549.400278 334.300267 
L 550.186509 328.96786 
L 550.97274 336.153054 
L 551.758971 316.593587 
L 552.545202 333.250444 
L 553.331433 340.603816 
L 554.117665 323.400738 
L 554.903896 331.459324 
L 555.690127 328.787622 
L 556.476358 333.088065 
L 557.262589 322.81066 
L 558.04882 335.635579 
L 558.835052 327.334882 
L 559.621283 342.48414 
L 561.193745 346.794155 
L 561.979976 335.097758 
L 562.766207 315.155686 
L 563.552439 334.278037 
L 564.33867 335.952153 
L 565.124901 341.203772 
L 566.697363 324.239329 
L 567.483594 341.989906 
L 568.269826 330.790717 
L 569.056057 324.077607 
L 569.842288 339.747687 
L 570.628519 319.777093 
L 571.41475 338.620449 
L 572.200981 340.71509 
L 572.987213 335.758274 
L 573.773444 338.21534 
L 574.559675 325.005869 
L 575.345906 336.648581 
L 576.132137 331.359135 
L 576.918368 344.381847 
L 577.7046 326.521019 
L 578.490831 331.49005 
L 579.277062 339.046283 
L 580.849524 321.86274 
L 581.635755 344.311576 
L 582.421987 315.381541 
L 583.208218 343.269871 
L 583.994449 342.557895 
L 584.78068 322.289233 
L 585.566911 341.869447 
L 586.353142 349.475885 
L 587.139374 300.751722 
L 587.925605 340.889855 
L 588.711836 346.200761 
L 589.498067 345.861203 
L 590.284298 339.607753 
L 591.070529 329.914537 
L 591.856761 339.702404 
L 592.642992 338.679153 
L 593.429223 341.698583 
L 594.215454 331.180223 
L 595.787916 332.050822 
L 596.574148 350.114299 
L 597.360379 336.992476 
L 598.14661 348.062797 
L 598.932841 342.932219 
L 599.719072 345.703724 
L 600.505303 335.095739 
L 601.291534 349.597868 
L 602.077766 339.555644 
L 602.863997 319.159753 
L 603.650228 315.931213 
L 604.436459 297.302325 
L 605.22269 327.705397 
L 606.008921 320.322916 
L 606.795153 345.82418 
L 607.581384 335.013616 
L 608.367615 330.137893 
L 609.153846 353.479497 
L 609.940077 328.083502 
L 610.726308 360.846821 
L 611.51254 334.021327 
L 612.298771 369.602891 
L 613.085002 353.894933 
L 613.871233 365.682434 
L 614.657464 371.452727 
L 615.443695 352.560663 
L 616.229927 356.714186 
L 617.016158 352.876353 
L 617.802389 339.162611 
L 618.58862 339.814729 
L 619.374851 320.664721 
L 620.161082 341.874171 
L 620.947314 330.447409 
L 621.733545 336.490272 
L 622.519776 326.678162 
L 623.306007 315.194681 
L 624.878469 326.794756 
L 625.664701 318.17232 
L 626.450932 322.220585 
L 627.237163 312.871151 
L 628.023394 311.858368 
L 630.382088 318.129921 
L 631.168319 327.413764 
L 631.95455 307.852468 
L 632.740781 343.124513 
L 633.527012 321.502101 
L 634.313243 290.660084 
L 635.099475 293.086651 
L 635.885706 288.061539 
L 636.671937 321.858018 
L 637.458168 293.219642 
L 638.244399 289.355401 
L 639.03063 304.310825 
L 639.816862 305.840269 
L 640.603093 313.564198 
L 641.389324 312.287732 
L 642.175555 311.793873 
L 642.961786 315.232902 
L 644.534249 290.934438 
L 645.32048 283.629956 
L 646.106711 254.983237 
L 646.892942 313.420894 
L 647.679173 295.572279 
L 648.465404 284.782821 
L 649.251636 300.00604 
L 650.037867 300.009712 
L 650.824098 304.034995 
L 651.610329 301.056919 
L 652.39656 277.513536 
L 653.182791 284.927615 
L 653.969023 298.109683 
L 654.755254 285.436241 
L 655.541485 295.44355 
L 656.327716 292.698275 
L 657.113947 283.968042 
L 657.900178 286.626583 
L 658.68641 277.516109 
L 659.472641 298.75841 
L 660.258872 289.980522 
L 661.045103 273.043777 
L 661.831334 302.065725 
L 662.617565 283.600088 
L 663.403797 302.130729 
L 664.190028 289.74704 
L 664.976259 285.355248 
L 665.76249 300.495667 
L 666.548721 295.116845 
L 667.334952 281.705916 
L 668.121184 266.069785 
L 668.907415 297.647205 
L 669.693646 287.003816 
L 670.479877 291.368434 
L 671.266108 275.018809 
L 672.052339 267.751932 
L 672.838571 278.954526 
L 673.624802 267.476098 
L 674.411033 273.777863 
L 675.197264 299.041136 
L 675.983495 296.86595 
L 676.769726 288.783874 
L 677.555958 265.638107 
L 678.342189 295.783832 
L 679.12842 305.10048 
L 679.914651 259.110472 
L 680.700882 294.847392 
L 681.487113 313.498453 
L 682.273345 286.908343 
L 683.059576 290.26836 
L 683.845807 262.689723 
L 684.632038 301.58303 
L 685.418269 302.418986 
L 686.2045 306.527073 
L 686.990732 305.186092 
L 687.776963 291.880628 
L 688.563194 307.698946 
L 689.349425 293.028109 
L 690.135656 312.379668 
L 690.921887 295.324944 
L 691.708119 309.133288 
L 692.49435 295.913903 
L 693.280581 312.97854 
L 694.066812 303.710134 
L 694.853043 282.921761 
L 695.639274 310.984015 
L 696.425506 303.174091 
L 697.211737 286.75176 
L 697.997968 304.284365 
L 698.784199 287.523952 
L 699.57043 264.814848 
L 700.356661 300.129245 
L 701.142893 274.537612 
L 701.929124 289.535952 
L 702.715355 310.523726 
L 703.501586 283.259339 
L 704.287817 275.098931 
L 705.074048 309.526369 
L 705.86028 306.340878 
L 706.646511 293.09299 
L 707.432742 251.548465 
L 708.218973 277.111719 
L 709.005204 281.975677 
L 709.791435 300.374983 
L 710.577667 264.325614 
L 711.363898 306.625573 
L 712.150129 339.784362 
L 712.93636 319.050186 
L 713.722591 305.255247 
L 714.508822 252.060078 
L 715.295054 326.883218 
L 716.081285 323.280177 
L 716.867516 294.53202 
L 717.653747 284.607474 
L 718.439978 320.861972 
L 719.226209 317.196761 
L 720.012441 310.187225 
L 720.798672 285.896703 
L 721.584903 314.772612 
L 722.371134 328.629109 
L 723.157365 314.046472 
L 723.943596 309.70376 
L 724.729828 314.560708 
L 725.516059 311.681951 
L 726.30229 314.253482 
L 727.088521 307.955944 
L 727.874752 312.985426 
L 728.660983 307.51145 
L 729.447215 315.359294 
L 730.233446 302.972448 
L 731.019677 312.162596 
L 731.805908 310.648539 
L 732.592139 311.234741 
L 733.37837 316.144894 
L 734.164602 309.275108 
L 734.950833 313.560906 
L 735.737064 316.062575 
L 736.523295 319.42336 
L 737.309526 300.596426 
L 738.095757 308.838893 
L 738.881989 297.605244 
L 739.66822 301.951786 
L 740.454451 311.214245 
L 741.240682 317.37724 
L 742.026913 332.765961 
L 742.813144 294.36023 
L 743.599375 310.743898 
L 744.385607 312.771549 
L 745.171838 305.71721 
L 745.958069 304.56697 
L 746.7443 313.134421 
L 747.530531 312.426219 
L 748.316762 302.415429 
L 749.102994 306.595166 
L 749.889225 303.279159 
L 750.675456 309.713235 
L 751.461687 306.728301 
L 752.247918 305.792781 
L 753.034149 300.275525 
L 753.820381 306.180134 
L 754.606612 300.336581 
L 755.392843 292.500012 
L 756.179074 303.797203 
L 756.965305 310.130438 
L 757.751536 306.517239 
L 758.537768 297.114302 
L 759.323999 303.086903 
L 760.11023 163.195064 
L 760.896461 193.90684 
L 761.682692 242.893714 
L 762.468923 155.735373 
L 763.255155 174.930271 
L 764.041386 181.675207 
L 764.827617 193.139492 
L 765.613848 168.675461 
L 766.400079 161.765736 
L 767.18631 167.671715 
L 767.972542 302.706336 
L 768.758773 174.08036 
L 769.545004 152.183683 
L 770.331235 148.563275 
L 771.117466 239.559729 
L 771.903697 155.375262 
L 772.689929 231.476126 
L 773.47616 182.148831 
L 774.262391 163.403216 
L 775.048622 224.866533 
L 775.834853 249.062256 
L 776.621084 171.485248 
L 777.407316 163.537493 
L 778.193547 169.257173 
L 778.979778 170.491785 
L 779.766009 170.941715 
L 780.55224 169.624629 
L 781.338471 239.444162 
L 782.124703 166.648101 
L 782.910934 157.699517 
L 784.483396 216.661386 
L 785.269627 149.354867 
L 786.055858 178.597085 
L 786.84209 193.82741 
L 787.628321 252.359694 
L 788.414552 167.107229 
L 789.200783 228.516083 
L 789.987014 124.215183 
L 790.773245 191.270464 
L 791.559477 211.180124 
L 792.345708 223.688514 
L 793.131939 253.423156 
L 793.91817 238.919593 
L 794.704401 177.55053 
L 795.490632 163.249151 
L 796.276864 151.311989 
L 797.063095 214.095253 
L 797.849326 251.376506 
L 798.635557 230.217728 
L 799.421788 157.909345 
L 800.208019 143.260926 
L 800.994251 252.167304 
L 802.566713 147.936 
L 803.352944 250.980097 
L 804.139175 179.582306 
L 804.925406 158.609713 
L 805.711638 148.334464 
L 806.497869 288.107375 
L 807.2841 246.641235 
L 808.070331 217.006075 
L 808.856562 216.754869 
L 809.642793 212.664168 
L 810.429025 144.126898 
L 811.215256 157.734478 
L 812.001487 232.064953 
L 812.787718 135.674109 
L 813.573949 304.475708 
L 814.36018 174.45607 
L 815.146412 127.723841 
L 815.932643 244.297144 
L 816.718874 283.068636 
L 817.505105 247.941322 
L 818.291336 163.519828 
L 819.077567 220.209445 
L 819.863799 238.857191 
L 820.65003 203.493666 
L 821.436261 184.447688 
L 822.222492 139.729532 
L 823.008723 247.616222 
L 823.794954 265.067067 
L 824.581186 156.348745 
L 825.367417 164.052806 
L 826.153648 306.238121 
L 826.939879 265.422541 
L 827.72611 158.38222 
L 828.512341 187.852597 
L 829.298573 200.572049 
L 830.084804 216.837893 
L 830.871035 168.832888 
L 831.657266 289.99957 
L 832.443497 267.676761 
L 833.229728 273.707174 
L 834.01596 220.40461 
L 834.802191 231.242283 
L 835.588422 220.041424 
L 836.374653 260.239571 
L 837.160884 177.950761 
L 837.947115 247.230209 
L 837.947115 247.230209 
" clip-path="url(#p4998aaabe1)" style="fill: none; stroke: #0000ff; stroke-width: 2; stroke-linecap: square"/>
   </g>
   <g id="patch_3">
    <path d="M 60.05 387.16 
L 60.05 41.6 
" style="fill: none; stroke: #000000; stroke-width: 0.8; stroke-linejoin: miter; stroke-linecap: square"/>
   </g>
   <g id="patch_4">
    <path d="M 853.2 387.16 
L 853.2 41.6 
" style="fill: none; stroke: #000000; stroke-width: 0.8; stroke-linejoin: miter; stroke-linecap: square"/>
   </g>
   <g id="patch_5">
    <path d="M 60.05 387.16 
L 853.2 387.16 
" style="fill: none; stroke: #000000; stroke-width: 0.8; stroke-linejoin: miter; stroke-linecap: square"/>
   </g>
   <g id="patch_6">
    <path d="M 60.05 41.6 
L 853.2 41.6 
" style="fill: none; stroke: #000000; stroke-width: 0.8; stroke-linejoin: miter; stroke-linecap: square"/>
   </g>
   <g id="text_17">
    <!-- Training MSE vs Time on Machine Dataset with 2 Hidden Layer -->
    <g transform="translate(237.843281 21.6) scale(0.14 -0.14)">
     <defs>
      <path id="DejaVuSans-67" d="M 2906 1791 
Q 2906 2416 2648 2759 
Q 2391 3103 1925 3103 
Q 1463 3103 1205 2759 
Q 947 2416 947 1791 
Q 947 1169 1205 825 
Q 1463 481 1925 481 
Q 2391 481 2648 825 
Q 2906 1169 2906 1791 
z
M 3481 434 
Q 3481 -459 3084 -895 
Q 2688 -1331 1869 -1331 
Q 1566 -1331 1297 -1286 
Q 1028 -1241 775 -1147 
L 775 -588 
Q 1028 -725 1275 -790 
Q 1522 -856 1778 -856 
Q 2344 -856 2625 -561 
Q 2906 -266 2906 331 
L 2906 616 
Q 2728 306 2450 153 
Q 2172 0 1784 0 
Q 1141 0 747 490 
Q 353 981 353 1791 
Q 353 2603 747 3093 
Q 1141 3584 1784 3584 
Q 2172 3584 2450 3431 
Q 2728 3278 2906 2969 
L 2906 3500 
L 3481 3500 
L 3481 434 
z
" transform="scale(0.015625)"/>
      <path id="DejaVuSans-76" d="M 191 3500 
L 800 3500 
L 1894 563 
L 2988 3500 
L 3597 3500 
L 2284 0 
L 1503 0 
L 191 3500 
z
" transform="scale(0.015625)"/>
      <path id="DejaVuSans-73" d="M 2834 3397 
L 2834 2853 
Q 2591 2978 2328 3040 
Q 2066 3103 1784 3103 
Q 1356 3103 1142 2972 
Q 928 2841 928 2578 
Q 928 2378 1081 2264 
Q 1234 2150 1697 2047 
L 1894 2003 
Q 2506 1872 2764 1633 
Q 3022 1394 3022 966 
Q 3022 478 2636 193 
Q 2250 -91 1575 -91 
Q 1294 -91 989 -36 
Q 684 19 347 128 
L 347 722 
Q 666 556 975 473 
Q 1284 391 1588 391 
Q 1994 391 2212 530 
Q 2431 669 2431 922 
Q 2431 1156 2273 1281 
Q 2116 1406 1581 1522 
L 1381 1569 
Q 847 1681 609 1914 
Q 372 2147 372 2553 
Q 372 3047 722 3315 
Q 1072 3584 1716 3584 
Q 2034 3584 2315 3537 
Q 2597 3491 2834 3397 
z
" transform="scale(0.015625)"/>
      <path id="DejaVuSans-63" d="M 3122 3366 
L 3122 2828 
Q 2878 2963 2633 3030 
Q 2388 3097 2138 3097 
Q 1578 3097 1268 2742 
Q 959 2388 959 1747 
Q 959 1106 1268 751 
Q 1578 397 2138 397 
Q 2388 397 2633 464 
Q 2878 531 3122 666 
L 3122 134 
Q 2881 22 2623 -34 
Q 2366 -91 2075 -91 
Q 1284 -91 818 406 
Q 353 903 353 1747 
Q 353 2603 823 3093 
Q 1294 3584 2113 3584 
Q 2378 3584 2631 3529 
Q 2884 3475 3122 3366 
z
" transform="scale(0.015625)"/>
      <path id="DejaVuSans-68" d="M 3513 2113 
L 3513 0 
L 2938 0 
L 2938 2094 
Q 2938 2591 2744 2837 
Q 2550 3084 2163 3084 
Q 1697 3084 1428 2787 
Q 1159 2491 1159 1978 
L 1159 0 
L 581 0 
L 581 4863 
L 1159 4863 
L 1159 2956 
Q 1366 3272 1645 3428 
Q 1925 3584 2291 3584 
Q 2894 3584 3203 3211 
Q 3513 2838 3513 2113 
z
" transform="scale(0.015625)"/>
      <path id="DejaVuSans-44" d="M 1259 4147 
L 1259 519 
L 2022 519 
Q 2988 519 3436 956 
Q 3884 1394 3884 2338 
Q 3884 3275 3436 3711 
Q 2988 4147 2022 4147 
L 1259 4147 
z
M 628 4666 
L 1925 4666 
Q 3281 4666 3915 4102 
Q 4550 3538 4550 2338 
Q 4550 1131 3912 565 
Q 3275 0 1925 0 
L 628 0 
L 628 4666 
z
" transform="scale(0.015625)"/>
      <path id="DejaVuSans-74" d="M 1172 4494 
L 1172 3500 
L 2356 3500 
L 2356 3053 
L 1172 3053 
L 1172 1153 
Q 1172 725 1289 603 
Q 1406 481 1766 481 
L 2356 481 
L 2356 0 
L 1766 0 
Q 1100 0 847 248 
Q 594 497 594 1153 
L 594 3053 
L 172 3053 
L 172 3500 
L 594 3500 
L 594 4494 
L 1172 4494 
z
" transform="scale(0.015625)"/>
      <path id="DejaVuSans-77" d="M 269 3500 
L 844 3500 
L 1563 769 
L 2278 3500 
L 2956 3500 
L 3675 769 
L 4391 3500 
L 4966 3500 
L 4050 0 
L 3372 0 
L 2619 2869 
L 1863 0 
L 1184 0 
L 269 3500 
z
" transform="scale(0.015625)"/>
      <path id="DejaVuSans-48" d="M 628 4666 
L 1259 4666 
L 1259 2753 
L 3553 2753 
L 3553 4666 
L 4184 4666 
L 4184 0 
L 3553 0 
L 3553 2222 
L 1259 2222 
L 1259 0 
L 628 0 
L 628 4666 
z
" transform="scale(0.015625)"/>
      <path id="DejaVuSans-4c" d="M 628 4666 
L 1259 4666 
L 1259 531 
L 3531 531 
L 3531 0 
L 628 0 
L 628 4666 
z
" transform="scale(0.015625)"/>
      <path id="DejaVuSans-79" d="M 2059 -325 
Q 1816 -950 1584 -1140 
Q 1353 -1331 966 -1331 
L 506 -1331 
L 506 -850 
L 844 -850 
Q 1081 -850 1212 -737 
Q 1344 -625 1503 -206 
L 1606 56 
L 191 3500 
L 800 3500 
L 1894 763 
L 2988 3500 
L 3597 3500 
L 2059 -325 
z
" transform="scale(0.015625)"/>
     </defs>
     <use xlink:href="#DejaVuSans-54"/>
     <use xlink:href="#DejaVuSans-72" x="46.333984"/>
     <use xlink:href="#DejaVuSans-61" x="87.447266"/>
     <use xlink:href="#DejaVuSans-69" x="148.726562"/>
     <use xlink:href="#DejaVuSans-6e" x="176.509766"/>
     <use xlink:href="#DejaVuSans-69" x="239.888672"/>
     <use xlink:href="#DejaVuSans-6e" x="267.671875"/>
     <use xlink:href="#DejaVuSans-67" x="331.050781"/>
     <use xlink:href="#DejaVuSans-20" x="394.527344"/>
     <use xlink:href="#DejaVuSans-4d" x="426.314453"/>
     <use xlink:href="#DejaVuSans-53" x="512.59375"/>
     <use xlink:href="#DejaVuSans-45" x="576.070312"/>
     <use xlink:href="#DejaVuSans-20" x="639.253906"/>
     <use xlink:href="#DejaVuSans-76" x="671.041016"/>
     <use xlink:href="#DejaVuSans-73" x="730.220703"/>
     <use xlink:href="#DejaVuSans-20" x="782.320312"/>
     <use xlink:href="#DejaVuSans-54" x="814.107422"/>
     <use xlink:href="#DejaVuSans-69" x="872.066406"/>
     <use xlink:href="#DejaVuSans-6d" x="899.849609"/>
     <use xlink:href="#DejaVuSans-65" x="997.261719"/>
     <use xlink:href="#DejaVuSans-20" x="1058.785156"/>
     <use xlink:href="#DejaVuSans-6f" x="1090.572266"/>
     <use xlink:href="#DejaVuSans-6e" x="1151.753906"/>
     <use xlink:href="#DejaVuSans-20" x="1215.132812"/>
     <use xlink:href="#DejaVuSans-4d" x="1246.919922"/>
     <use xlink:href="#DejaVuSans-61" x="1333.199219"/>
     <use xlink:href="#DejaVuSans-63" x="1394.478516"/>
     <use xlink:href="#DejaVuSans-68" x="1449.458984"/>
     <use xlink:href="#DejaVuSans-69" x="1512.837891"/>
     <use xlink:href="#DejaVuSans-6e" x="1540.621094"/>
     <use xlink:href="#DejaVuSans-65" x="1604"/>
     <use xlink:href="#DejaVuSans-20" x="1665.523438"/>
     <use xlink:href="#DejaVuSans-44" x="1697.310547"/>
     <use xlink:href="#DejaVuSans-61" x="1774.3125"/>
     <use xlink:href="#DejaVuSans-74" x="1835.591797"/>
     <use xlink:href="#DejaVuSans-61" x="1874.800781"/>
     <use xlink:href="#DejaVuSans-73" x="1936.080078"/>
     <use xlink:href="#DejaVuSans-65" x="1988.179688"/>
     <use xlink:href="#DejaVuSans-74" x="2049.703125"/>
     <use xlink:href="#DejaVuSans-20" x="2088.912109"/>
     <use xlink:href="#DejaVuSans-77" x="2120.699219"/>
     <use xlink:href="#DejaVuSans-69" x="2202.486328"/>
     <use xlink:href="#DejaVuSans-74" x="2230.269531"/>
     <use xlink:href="#DejaVuSans-68" x="2269.478516"/>
     <use xlink:href="#DejaVuSans-20" x="2332.857422"/>
     <use xlink:href="#DejaVuSans-32" x="2364.644531"/>
     <use xlink:href="#DejaVuSans-20" x="2428.267578"/>
     <use xlink:href="#DejaVuSans-48" x="2460.054688"/>
     <use xlink:href="#DejaVuSans-69" x="2535.25"/>
     <use xlink:href="#DejaVuSans-64" x="2563.033203"/>
     <use xlink:href="#DejaVuSans-64" x="2626.509766"/>
     <use xlink:href="#DejaVuSans-65" x="2689.986328"/>
     <use xlink:href="#DejaVuSans-6e" x="2751.509766"/>
     <use xlink:href="#DejaVuSans-20" x="2814.888672"/>
     <use xlink:href="#DejaVuSans-4c" x="2846.675781"/>
     <use xlink:href="#DejaVuSans-61" x="2902.388672"/>
     <use xlink:href="#DejaVuSans-79" x="2963.667969"/>
     <use xlink:href="#DejaVuSans-65" x="3022.847656"/>
     <use xlink:href="#DejaVuSans-72" x="3084.371094"/>
    </g>
   </g>
  </g>
 </g>
 <defs>
  <clipPath id="p4998aaabe1">
   <rect x="60.05" y="41.6" width="793.15" height="345.56"/>
  </clipPath>
 </defs>
</svg>
